<svg xmlns="http://www.w3.org/2000/svg" xmlns:xlink="http://www.w3.org/1999/xlink" width="545.523" height="102.131" viewBox="0 0 545.523 102.131">
  <defs>
    <clipPath id="clip-path">
      <rect id="Rechteck_3" data-name="Rechteck 3" width="26.69" height="65.464" fill="#14b8a6"/>
    </clipPath>
  </defs>
  <g id="Gruppe_4" data-name="Gruppe 4" transform="translate(-641.04 -322.701)">
    <path id="Pfad_13" data-name="Pfad 13" d="M8.04-17.834V-100.3H25.117v31.4a26.06,26.06,0,0,1,7.244-5.04,22.161,22.161,0,0,1,9.5-1.9,18,18,0,0,1,8.263,1.928,18.6,18.6,0,0,1,6.555,5.646,28.592,28.592,0,0,1,4.324,9.117,44.028,44.028,0,0,1,1.57,12.284,37.953,37.953,0,0,1-1.79,11.9,29.9,29.9,0,0,1-5.013,9.475,23.094,23.094,0,0,1-7.712,6.28,21.809,21.809,0,0,1-9.943,2.259,19.032,19.032,0,0,1-4.545-.5,15.537,15.537,0,0,1-3.691-1.4A15.844,15.844,0,0,1,26.8-21.029a35.162,35.162,0,0,1-2.727-2.754l-.606,2.865a3.661,3.661,0,0,1-1.4,2.424,4.839,4.839,0,0,1-2.672.661ZM35.914-63.005a14.758,14.758,0,0,0-3.388.358,12.45,12.45,0,0,0-2.809,1.019,10.654,10.654,0,0,0-2.4,1.68,24.886,24.886,0,0,0-2.2,2.341v24.238a10.8,10.8,0,0,0,4.187,3,13.285,13.285,0,0,0,4.737.854,10.062,10.062,0,0,0,4.352-.936,8.868,8.868,0,0,0,3.443-3,15.989,15.989,0,0,0,2.286-5.371,33.643,33.643,0,0,0,.826-8.043,37,37,0,0,0-.661-7.6,15.661,15.661,0,0,0-1.845-4.985A7.164,7.164,0,0,0,39.6-62.179,8.137,8.137,0,0,0,35.914-63.005ZM94.857-74.959v36.247a9.968,9.968,0,0,0,1.928,6.555,6.964,6.964,0,0,0,5.674,2.314A12.172,12.172,0,0,0,107.72-31a19.624,19.624,0,0,0,4.765-3.25V-74.959h17.077v57.125H118.985A4.016,4.016,0,0,1,114.8-20.7L113.752-24a33.149,33.149,0,0,1-3.415,2.892,20.9,20.9,0,0,1-3.773,2.2,22.541,22.541,0,0,1-4.324,1.432,22.977,22.977,0,0,1-5.068.523,20,20,0,0,1-8.291-1.625,17.057,17.057,0,0,1-6.087-4.545,19.821,19.821,0,0,1-3.746-6.886,28.48,28.48,0,0,1-1.267-8.7V-74.959Zm94.97,57.125a4.713,4.713,0,0,1-2.672-.716A3.824,3.824,0,0,1,185.64-20.7l-1.322-4.352a33.486,33.486,0,0,1-3.581,3.305,22.519,22.519,0,0,1-4.049,2.562,21.413,21.413,0,0,1-4.682,1.653,24.107,24.107,0,0,1-5.426.578,17.6,17.6,0,0,1-8.263-1.983,19.042,19.042,0,0,1-6.555-5.729,28.91,28.91,0,0,1-4.324-9.172,44.545,44.545,0,0,1-1.57-12.367,38.572,38.572,0,0,1,1.763-11.871,29.1,29.1,0,0,1,4.985-9.475,23.15,23.15,0,0,1,7.74-6.252,21.979,21.979,0,0,1,9.971-2.259,19.141,19.141,0,0,1,7.464,1.295,21.545,21.545,0,0,1,5.536,3.388V-100.3H200.4v82.465Zm-17.3-12.229a14.755,14.755,0,0,0,3.388-.358A11.91,11.91,0,0,0,178.7-31.44a12.136,12.136,0,0,0,2.4-1.653,20.73,20.73,0,0,0,2.231-2.314V-59.645a11.291,11.291,0,0,0-4.214-3,13.064,13.064,0,0,0-4.71-.854,10.062,10.062,0,0,0-4.352.936,8.868,8.868,0,0,0-3.443,3,15.989,15.989,0,0,0-2.286,5.371A33.368,33.368,0,0,0,163.5-46.2a37,37,0,0,0,.661,7.6A15.66,15.66,0,0,0,166-33.616a7.164,7.164,0,0,0,2.837,2.727A8.137,8.137,0,0,0,172.529-30.063Zm68.2-45.887a31.559,31.559,0,0,1,6.858.716,27.594,27.594,0,0,1,5.977,2.038H270.8v6.225a3.113,3.113,0,0,1-.8,2.259,5.47,5.47,0,0,1-2.727,1.267l-4.187.936a17.146,17.146,0,0,1,.771,5.123,16.358,16.358,0,0,1-1.79,7.712,17.542,17.542,0,0,1-4.9,5.812,22.865,22.865,0,0,1-7.354,3.691,30.984,30.984,0,0,1-9.089,1.295,36.72,36.72,0,0,1-5.068-.331,3.111,3.111,0,0,0-1.873,2.558,2.164,2.164,0,0,0,1.515,2.086,14.122,14.122,0,0,0,3.994.89q2.479.25,5.674.25t6.5.3a50.81,50.81,0,0,1,6.5,1.022,17.368,17.368,0,0,1,5.674,2.321,12.086,12.086,0,0,1,3.994,4.283,13.748,13.748,0,0,1,1.515,6.825,16.593,16.593,0,0,1-1.873,7.57,19.756,19.756,0,0,1-5.509,6.576A28.747,28.747,0,0,1,252.846.091a38.725,38.725,0,0,1-12.119,1.741,46.493,46.493,0,0,1-11.6-1.268,28.053,28.053,0,0,1-8.1-3.336,14.049,14.049,0,0,1-4.765-4.77,11.194,11.194,0,0,1-1.542-5.625,9.358,9.358,0,0,1,2.314-6.425,15.375,15.375,0,0,1,6.335-4.108,9.665,9.665,0,0,1-3.085-3.245,9.805,9.805,0,0,1-1.157-5.006,8.9,8.9,0,0,1,.441-2.667,9.763,9.763,0,0,1,1.377-2.723,13.774,13.774,0,0,1,2.369-2.531,15.5,15.5,0,0,1,3.415-2.145,18.661,18.661,0,0,1-7.024-6.28,16.212,16.212,0,0,1-2.562-9.089,16.318,16.318,0,0,1,1.818-7.74,17.489,17.489,0,0,1,4.985-5.839,23.46,23.46,0,0,1,7.464-3.691A32.137,32.137,0,0,1,240.727-75.951ZM253.4-15.865a3.022,3.022,0,0,0-.854-2.25,6.061,6.061,0,0,0-2.314-1.35,16.082,16.082,0,0,0-3.415-.732,36.952,36.952,0,0,0-4.214-.225h-4.682a24.655,24.655,0,0,1-4.793-.468,11.218,11.218,0,0,0-2.617,2.457,4.964,4.964,0,0,0-1.019,3.065,4.667,4.667,0,0,0,.523,2.209,4.32,4.32,0,0,0,1.845,1.712,12.228,12.228,0,0,0,3.553,1.132,31.819,31.819,0,0,0,5.646.414,33.448,33.448,0,0,0,6.06-.45,12.645,12.645,0,0,0,3.773-1.238,4.6,4.6,0,0,0,1.956-1.885A5.255,5.255,0,0,0,253.4-15.865ZM240.727-49.4q4.242,0,6.142-2.121A7.9,7.9,0,0,0,248.77-57a7.556,7.556,0,0,0-1.9-5.454q-1.9-1.983-6.142-1.983t-6.142,1.983a7.556,7.556,0,0,0-1.9,5.454,9.363,9.363,0,0,0,.468,3.03,6.3,6.3,0,0,0,1.46,2.4,6.839,6.839,0,0,0,2.506,1.6A10.115,10.115,0,0,0,240.727-49.4ZM309.586-75.84a29.414,29.414,0,0,1,10.384,1.763,22.573,22.573,0,0,1,8.1,5.123,23.383,23.383,0,0,1,5.288,8.236,30.221,30.221,0,0,1,1.9,11.045,24.1,24.1,0,0,1-.165,3.14,4.971,4.971,0,0,1-.606,1.928,2.307,2.307,0,0,1-1.184.992,5.547,5.547,0,0,1-1.9.275H298.458q.826,7.161,4.352,10.384a12.948,12.948,0,0,0,9.089,3.223,16.27,16.27,0,0,0,5.123-.716,25.845,25.845,0,0,0,3.829-1.6q1.68-.881,3.085-1.6a6.405,6.405,0,0,1,2.947-.716,3.53,3.53,0,0,1,3.085,1.487l4.958,6.115a25.384,25.384,0,0,1-5.7,4.93,29.628,29.628,0,0,1-6.28,2.975,34.039,34.039,0,0,1-6.445,1.487,48.369,48.369,0,0,1-6.142.413,32.071,32.071,0,0,1-11.265-1.956,25.886,25.886,0,0,1-9.2-5.812,27.422,27.422,0,0,1-6.225-9.585,35.814,35.814,0,0,1-2.286-13.331,30.167,30.167,0,0,1,1.956-10.852,26.727,26.727,0,0,1,5.619-8.979,26.754,26.754,0,0,1,8.869-6.115A29.273,29.273,0,0,1,309.586-75.84Zm.331,11.789a10.29,10.29,0,0,0-7.657,2.782,14.494,14.494,0,0,0-3.636,8.015h21.319a15.074,15.074,0,0,0-.523-3.966,9.616,9.616,0,0,0-1.708-3.443,8.689,8.689,0,0,0-3.112-2.451A10.644,10.644,0,0,0,309.916-64.052Zm62.138,47.1a20.138,20.138,0,0,1-7.189-1.184,14.278,14.278,0,0,1-5.233-3.36,14.324,14.324,0,0,1-3.223-5.261,20.365,20.365,0,0,1-1.1-6.886V-63.17H350.46a3.234,3.234,0,0,1-2.259-.854,3.222,3.222,0,0,1-.936-2.506V-73.2l9.089-1.763,3.36-13.937q.661-2.644,3.746-2.644h8.924v16.691h13.882V-63.17H372.385V-34.8a5.339,5.339,0,0,0,.964,3.278,3.257,3.257,0,0,0,2.782,1.295,5.466,5.466,0,0,0,1.57-.193,6.246,6.246,0,0,0,1.1-.441q.468-.248.881-.441a2.259,2.259,0,0,1,.964-.193,1.987,1.987,0,0,1,1.239.358,4.435,4.435,0,0,1,.964,1.129l5.178,8.1a23.566,23.566,0,0,1-7.437,3.718A29.553,29.553,0,0,1,372.054-16.953Zm83.344-.881V-63.226L451.652-64a7.736,7.736,0,0,1-3.112-1.377,3.3,3.3,0,0,1-1.184-2.754v-6.721H455.4V-78.1a23.915,23.915,0,0,1,1.57-8.869,18.77,18.77,0,0,1,4.517-6.776,20.333,20.333,0,0,1,7.189-4.352,28.093,28.093,0,0,1,9.64-1.542,28.394,28.394,0,0,1,3.884.248,27.077,27.077,0,0,1,3.718.8l-.331,8.318a2.756,2.756,0,0,1-.468,1.46,3.31,3.31,0,0,1-1.019.936,4.592,4.592,0,0,1-1.35.523,6.717,6.717,0,0,1-1.46.165,16.641,16.641,0,0,0-4.021.441,6.443,6.443,0,0,0-2.947,1.57,7.063,7.063,0,0,0-1.79,2.975,15.149,15.149,0,0,0-.606,4.655v2.7h13.441V-63.17h-12.89v45.337ZM523.045-3.016a6.111,6.111,0,0,1-1.873,2.506,6.1,6.1,0,0,1-3.526.8h-12.78l11.017-23.136L493.078-74.959h15.094a4.82,4.82,0,0,1,3.085.881,4.731,4.731,0,0,1,1.542,2.093l9.365,24.624a54.244,54.244,0,0,1,2.148,6.831q.551-1.763,1.212-3.47t1.267-3.47l8.483-24.514a4.179,4.179,0,0,1,1.735-2.121,4.959,4.959,0,0,1,2.782-.854h13.772Z" transform="translate(633 423)" fill="#14b8a6"/>
    <g id="Gruppe_2" data-name="Gruppe 2" transform="translate(1038.125 341.739)">
      <g id="Gruppe_1" data-name="Gruppe 1" transform="translate(0 0)" clip-path="url(#clip-path)">
        <path id="Pfad_14" data-name="Pfad 14" d="M28.037,5.761c0,3.283-4.953,5.759-11.518,5.759S5,9.044,5,5.761,9.953,0,16.518,0,28.037,2.478,28.037,5.761" transform="translate(-4.73 -0.002)" fill="#14b8a6"/>
        <path id="Pfad_15" data-name="Pfad 15" d="M59.185,311.131c-4.9,0-9.076-1.267-11.518-3.4.069,3.26,4.987,5.7,11.518,5.7S70.6,311,70.7,307.779c-2.407,2.085-6.485,3.352-11.518,3.352" transform="translate(-45.093 -291.118)" fill="#14b8a6"/>
        <path id="Pfad_16" data-name="Pfad 16" d="M66.771,209.078a21.586,21.586,0,0,1-8.65-1.613c1.474,2.327,5.69,3.916,10.954,3.916,6.565,0,11.518-2.477,11.518-5.759a3.456,3.456,0,0,0-.657-1.981c-1.716,3.294-6.681,5.437-13.165,5.437" transform="translate(-54.983 -192.646)" fill="#14b8a6"/>
        <path id="Pfad_17" data-name="Pfad 17" d="M17.67,179.274h-2.3C10.851,179.1,7.177,177.869,5,175.945c.1,3.2,5.022,5.632,11.518,5.632s11.415-2.43,11.518-5.655c-2.223,1.924-5.9,3.156-10.366,3.352" transform="translate(-4.73 -166.424)" fill="#14b8a6"/>
        <path id="Pfad_18" data-name="Pfad 18" d="M24.519,518.128c4.9,0,9.076-1.267,11.518-3.4-.069,3.26-4.987,5.7-11.518,5.7S13.1,518,13,514.776c2.407,2.085,6.485,3.352,11.518,3.352" transform="translate(-12.299 -486.939)" fill="#14b8a6"/>
        <path id="Pfad_19" data-name="Pfad 19" d="M26.823,414.074a21.586,21.586,0,0,0,8.65-1.613c-1.474,2.327-5.69,3.916-10.954,3.916C17.954,416.377,13,413.9,13,410.618a3.455,3.455,0,0,1,.657-1.981c1.716,3.294,6.681,5.437,13.165,5.437" transform="translate(-12.299 -386.574)" fill="#14b8a6"/>
        <path id="Pfad_20" data-name="Pfad 20" d="M26.823,751.095a21.587,21.587,0,0,0,8.65-1.612C34,751.809,29.783,753.4,24.519,753.4,17.954,753.4,13,750.922,13,747.639a3.456,3.456,0,0,1,.657-1.981c1.716,3.294,6.681,5.437,13.165,5.437" transform="translate(-12.299 -705.399)" fill="#14b8a6"/>
        <path id="Pfad_21" data-name="Pfad 21" d="M66.033,381.27h2.3c4.515-.173,8.189-1.405,10.367-3.329-.1,3.2-5.022,5.632-11.518,5.632s-11.415-2.431-11.518-5.656c2.223,1.924,5.9,3.156,10.366,3.352" transform="translate(-52.661 -357.514)" fill="#14b8a6"/>
        <path id="Pfad_22" data-name="Pfad 22" d="M78.185,722.91c-4.9,0-9.076-1.267-11.518-3.4.069,3.26,4.987,5.7,11.518,5.7s11.415-2.43,11.518-5.656c-2.407,2.085-6.485,3.352-11.518,3.352" transform="translate(-63.068 -680.665)" fill="#14b8a6"/>
        <path id="Pfad_23" data-name="Pfad 23" d="M86.771,617.855a21.581,21.581,0,0,1-8.65-1.612c1.474,2.327,5.69,3.916,10.954,3.916,6.565,0,11.518-2.476,11.518-5.759a3.455,3.455,0,0,0-.657-1.981c-1.716,3.294-6.681,5.436-13.165,5.436" transform="translate(-73.903 -579.354)" fill="#14b8a6"/>
        <path id="Pfad_24" data-name="Pfad 24" d="M36.67,585.052h-2.3c-4.515-.173-8.189-1.405-10.366-3.329.1,3.2,5.022,5.632,11.518,5.632s11.415-2.43,11.518-5.655c-2.223,1.924-5.9,3.156-10.366,3.352" transform="translate(-22.704 -550.293)" fill="#14b8a6"/>
        <path id="Pfad_25" data-name="Pfad 25" d="M17.67,851.069h-2.3C10.851,850.9,7.177,849.664,5,847.74c.1,3.2,5.022,5.632,11.518,5.632s11.415-2.43,11.518-5.655c-2.223,1.924-5.9,3.156-10.366,3.352" transform="translate(-4.73 -801.947)" fill="#14b8a6"/>
        <path id="Pfad_26" data-name="Pfad 26" d="M13.822,1010.112a21.583,21.583,0,0,0,8.65-1.613c-1.474,2.327-5.69,3.916-10.954,3.916-6.565,0-11.518-2.476-11.518-5.759a3.455,3.455,0,0,1,.657-1.981c1.716,3.294,6.681,5.437,13.165,5.437" transform="translate(0 -950.431)" fill="#14b8a6"/>
        <path id="Pfad_27" data-name="Pfad 27" d="M55.184,981.926c-4.9,0-9.076-1.267-11.518-3.4.069,3.26,4.987,5.7,11.518,5.7S66.6,981.8,66.7,978.574c-2.407,2.085-6.485,3.352-11.518,3.352" transform="translate(-41.308 -925.696)" fill="#14b8a6"/>
        <path id="Pfad_28" data-name="Pfad 28" d="M63.769,876.873a21.588,21.588,0,0,1-8.65-1.613c1.474,2.327,5.69,3.916,10.954,3.916,6.565,0,11.518-2.476,11.518-5.759a3.456,3.456,0,0,0-.657-1.981c-1.716,3.294-6.681,5.437-13.165,5.437" transform="translate(-52.143 -824.386)" fill="#14b8a6"/>
        <path id="Pfad_29" data-name="Pfad 29" d="M16.67,1111.085h-2.3c-4.515-.173-8.189-1.405-10.366-3.328.1,3.2,5.022,5.632,11.518,5.632s11.415-2.431,11.518-5.656c-2.223,1.923-5.9,3.156-10.366,3.352" transform="translate(-3.784 -1047.925)" fill="#14b8a6"/>
      </g>
    </g>
  </g>
</svg>
